# xmcd CD database file
#
# Track frame offsets:
#	180
#	13506
#	27982
#	40262
#	55926
#	67133
#	83151
#	101814
#	118613
#	136453
#	151661
#	163078
#	177950
#	194180
#
# Disc length: 2837 seconds
#
# Revision: 1
# Processed by: cddbd v1.5.2PL0 Copyright (c) Steve Scherf et al.
# Submitted via: CDex 1.51
#
DISCID=c20b130e
DTITLE=Lee Man - First Takes
DYEAR=1999
DGENRE=Blues
TTITLE0=Come to dust
TTITLE1=Her nameless town
TTITLE2=It got me nowhere
TTITLE3=Analyse the subject love
TTITLE4=Because of you
TTITLE5=Sabine and Dana
TTITLE6=Love happens
TTITLE7=I can´t fall asleep
TTITLE8=a lovely place
TTITLE9=Oh well, well
TTITLE10=I´ll find a way
TTITLE11=More than boy meet girl
TTITLE12=Good night
TTITLE13=Space blues
EXTD=YEAR: 1999
EXTT0=
EXTT1=
EXTT2=
EXTT3=
EXTT4=
EXTT5=
EXTT6=
EXTT7=
EXTT8=
EXTT9=
EXTT10=
EXTT11=
EXTT12=
EXTT13=
PLAYORDER=
